<svg version="1.0" xmlns="http://www.w3.org/2000/svg"
     width="900.000000pt" height="777.000000pt" viewBox="0 0 900.000000 777.000000"
     preserveAspectRatio="xMidYMid meet">
    <g transform="translate(0.000000,777.000000) scale(0.100000,-0.100000)"
       fill="#3E5879" stroke="none">
        <rect width="1000%" height="1000%" fill="#D8C4B6"/>
        <path d="M2855 7406 c-51 -19 -100 -75 -114 -131 -6 -24 -11 -94 -11 -154 l0
-111 -472 0 c-493 0 -501 -1 -658 -46 -224 -66 -436 -252 -550 -485 -72 -146
-89 -241 -97 -531 -4 -175 -3 -231 7 -243 11 -13 368 -15 3149 -15 2427 0
3140 3 3149 12 15 15 16 285 2 448 -30 331 -208 598 -507 762 -32 17 -71 35
-88 39 -227 63 -176 58 -696 59 l-477 0 -4 138 c-4 150 -13 179 -68 226 -66
55 -159 57 -229 5 -56 -41 -66 -72 -71 -224 l-5 -140 -1002 -3 -1003 -2 0 122
c0 109 -3 129 -24 175 -42 89 -140 132 -231 99z m255 -696 c0 -248 -3 -308
-16 -347 -20 -59 -47 -90 -99 -114 -107 -49 -227 13 -254 131 -6 25 -11 173
-11 338 l0 292 190 0 190 0 0 -300z m2378 -27 c-3 -324 -3 -328 -26 -361 -81
-113 -228 -121 -308 -16 l-29 37 -3 334 -3 333 186 0 187 0 -4 -327z"/>
        <path d="M983 5312 c-14 -2 -25 -12 -28 -25 -3 -12 -4 -866 -2 -1897 3 -1628
6 -1884 19 -1940 48 -207 149 -386 295 -522 67 -62 195 -144 250 -161 10 -3
43 -15 73 -27 30 -12 104 -30 164 -41 105 -18 172 -19 2018 -19 1297 0 1916 3
1929 10 10 6 19 20 19 31 0 11 6 48 14 82 12 53 22 100 51 243 3 11 305 321
671 690 367 368 700 704 741 746 l73 77 0 1364 c0 1236 -1 1366 -16 1378 -13
11 -563 13 -3132 14 -1715 0 -3127 -1 -3139 -3z m2602 -574 c46 -24 83 -66 97
-107 18 -52 24 -933 7 -1016 -10 -51 -19 -67 -59 -106 -28 -27 -60 -48 -80
-52 -59 -12 -994 -8 -1031 4 -39 13 -94 62 -115 101 -12 22 -14 118 -14 544 0
502 1 517 21 553 22 39 70 77 115 91 16 5 254 8 529 7 444 -2 503 -4 530 -19z
m2155 -8 c29 -17 53 -41 70 -70 l25 -45 0 -515 0 -515 -27 -40 c-15 -22 -44
-51 -65 -65 l-37 -25 -498 -3 c-348 -2 -511 1 -540 9 -59 15 -112 71 -132 139
-14 46 -16 120 -16 504 0 505 3 536 65 596 62 60 61 60 610 57 l500 -2 45 -25z
m-2151 -1819 c51 -26 86 -75 100 -139 16 -76 14 -929 -2 -997 -15 -63 -41
-101 -89 -131 l-38 -24 -518 0 -518 0 -47 29 c-28 19 -54 46 -67 70 -19 39
-20 56 -20 564 l0 524 30 41 c16 23 47 50 67 61 36 19 59 20 551 21 488 0 515
-1 551 -19z m2140 -1 c48 -24 87 -70 101 -118 16 -60 13 -997 -4 -1045 -17
-46 -39 -72 -88 -103 l-38 -24 -521 0 -521 0 -38 27 c-49 35 -76 77 -89 133
-13 54 -14 925 -2 987 11 57 47 109 96 138 l40 25 513 0 c489 0 515 -1 551
-20z"/>
        <path d="M2766 4382 c-8 -13 -9 -543 -1 -551 8 -8 502 -14 532 -6 l23 5 -2
278 -3 277 -272 3 c-149 1 -274 -2 -277 -6z"/>
        <path d="M4912 4378 c-9 -9 -12 -82 -12 -275 0 -249 1 -263 19 -273 31 -16
516 -13 533 3 10 11 12 68 8 283 l-5 269 -265 3 c-198 2 -269 -1 -278 -10z"/>
        <path d="M2767 2553 c-4 -3 -7 -129 -7 -279 l0 -272 23 -6 c33 -9 510 -7 525
2 9 7 12 70 10 283 l-3 274 -271 3 c-149 1 -273 -1 -277 -5z"/>
        <path d="M4906 2544 c-3 -8 -6 -131 -6 -273 0 -187 3 -260 12 -269 14 -14 514
-17 536 -4 9 7 12 70 10 283 l-3 274 -271 3 c-241 2 -272 1 -278 -14z"/>
        <path d="M7805 2523 c-59 -24 -199 -145 -214 -185 -5 -14 690 -708 709 -708
19 0 142 124 163 165 40 77 47 155 22 239 -19 64 -43 94 -200 255 -143 147
-218 209 -283 234 -53 21 -144 21 -197 0z"/>
        <path d="M6718 1473 l-586 -588 -11 -55 c-6 -30 -25 -127 -42 -215 -16 -88
-38 -191 -47 -230 -9 -38 -16 -104 -16 -145 -1 -86 13 -114 78 -161 34 -26 48
-29 111 -29 63 0 217 26 435 74 36 8 94 20 130 27 36 6 71 15 78 19 22 11
1182 1174 1180 1182 -6 17 -700 708 -711 708 -7 0 -276 -264 -599 -587z"/>
    </g>
</svg>
