<svg xmlns="http://www.w3.org/2000/svg" width="256" height="256">
    <path d="M126.313-.375l2.569.005C150.798-.275 168.144 3.502 188 13v2l2.574.711c3.862 1.453 6.945 3.487 10.238 5.914l1.851 1.344C218.844 34.875 233.634 50.561 242 69l1.176 2.484c1.317 2.821 2.577 5.663 3.824 8.516l1.289 2.855c9.901 23.477 11.335 52.62 4.711 77.145l-.621 2.609C248.09 178.913 238.916 197.196 228 210h-2l-.687 2.25c-1.585 3.322-3.409 4.522-6.312 6.75l-5 6c-3.386 3.646-6.841 6.288-11 9l-1.324 1.383C193.672 243.107 181.352 248.338 171 252l-2.851 1.072c-11.996 3.886-24.196 3.568-36.7 3.504-3.809-.014-7.617.02-11.426.058-16.595.053-30.514-1.015-45.023-9.635-1.257-.593-2.524-1.166-3.812-1.687-1.751-.721-3.494-1.466-5.187-2.312v-2l-1.562-.25c-3.482-1.071-6.31-2.885-9.437-4.75v-2l-1.687-.812c-5.894-3.027-10.159-6.409-14.25-11.687-1.71-2.073-3.165-3.439-5.25-5.062-2.898-2.511-3.096-2.975-3.812-6.437l-1.82-.816C23.675 206.738 21.546 201.29 19 197l-1.984-3.207C-1.033 163.747-4.17 127.414 3.754 93.543 5.432 87.016 8.119 81.076 11 75l2-5h2l.813-3.25C16.861 63.438 17.628 61.471 20 59h2l.297-1.73c.85-2.744 2.138-4.361 3.953-6.582 2.221-2.76 4.369-5.517 6.375-8.437C36.04 37.417 40.224 33.485 45 30h2l.754-1.824c1.449-2.53 2.727-3.447 5.184-4.988l2.43-1.543L58 20l2.758-1.801C66.029 14.771 71.284 11.623 77 9l3.125-1.5C85.872 5.093 91.973 3.533 98 2l2.033-.553c8.638-2.072 17.45-1.846 26.279-1.822z"
          fill="#273f61"/>
    <path d="M125 46h5l.699 1.977c2.102 5.632 4.288 9.577 8.301 14.023l1 3c3.814 3.502 8.028 6.446 13 8v2c3.684 1.519 7.392 2.847 11.188 4.063l3.168 1.035C183.766 84.161 204.934 82 220 82v101h-43v23h-53l-4-11c-7.731-11.727-20.887-19.629-34-24l-3.062-1.125c-9.38-2.794-18.298-3.287-28-3.5l-4.357-.117L40 166v14h44v3H36V83l44-1c12.476-2.495 22.684-6.465 31.695-15.746C113 65 113 65 115 65l.875-1.812C117 61 117 61 119 58h2l.621-2.117.816-2.758.809-2.742C124 48 124 48 125 46z"
          fill="#fc8c3c"/>
    <path d="M221 84h2l1.125 3.25c1.714 4.046 4.137 5.461 7.875 7.75 4 4.421 4 4.421 4 7l5 2v3l2.375.625C246 109 246 109 247.313 112.125L248 115l2.313.313c2.987.764 3.848 1.271 5.688 3.688.388 2.382.388 2.382.398 5.199l.018 3.142-.042 3.346-.024 3.414c-.152 8.958-1.132 17.218-3.351 25.898l-.621 2.629C248.054 178.933 238.925 197.185 228 210h-2l-.687 2.25c-1.585 3.322-3.409 4.522-6.312 6.75l-5 6c-3.386 3.646-6.841 6.288-11 9l-1.324 1.383c-7.992 7.713-20.328 12.98-30.676 16.617l-3.025 1.083c-11.728 3.682-23.221 3.372-35.413 3.167l-6.299-.055L111 256l-.832-1.953c-1.02-2.345-1.02-2.345-3.855-2.797-4.19-1.581-5.913-3.872-8.699-7.281-1.669-2.111-1.669-2.111-4.051-4.344C92 238 92 238 92 236l-2.187-.687c-2.699-1.26-4.23-2.549-6.238-4.703-2.049-2.095-4.247-3.99-6.449-5.922-3.861-3.442-7.274-7.029-10.605-10.977-1.96-2.206-4.178-3.924-6.52-5.711l-5-5-5.645-4.668L48 197v-2h-2l-1-3c-1.622-1.71-3.294-3.373-5-5l-4-4h48v-3H40v-14l12.476-.165 4.224-.062c12.844-.234 24.893.754 36.301 7.226l4.875 2.25c9.865 4.963 20.415 13.311 25.125 23.563 1 3.188 1 3.188 1 7.188h53v-23h44V84zm32 30l2 2h-2v-2z"
          fill="#12243e"/>
    <path d="M217 86v95h-40l-1-46-2-1v70h-45c1.18-5.902 3.524-9.219 7-14l1.332-1.844c2.534-3.282 4.668-5.013 8.668-6.156v-2l2-1c-.294-5.441-3.461-7.959-7.187-11.5l-1.713-1.684c-4.343-4.229-8.727-8.424-13.975-11.504L123 153v-2l-1.812-.812C119 149 119 149 117.762 147.613c-2.444-2.238-5.11-3.283-8.137-4.613-4.058-1.791-7.849-3.677-11.625-6-7.814-4.313-17.277-4.43-26-5l-1-4 3.063-2.5c2.646-2.26 4.952-4.586 7.188-7.25 3.719-4.393 7.937-8.111 12.254-11.906 2.062-1.936 3.515-3.639 5.059-5.969 2.698-2.629 3.329-2.837 6.938-3.062 6.636.406 12.49 3.014 18.5 5.688l2.359 1.012c4.782 2.196 9.071 5.084 12.641 8.988v2h2c1.516 1.539 1.516 1.539 3.25 3.625l1.898 2.199 3.328 4.008c2.924 3.357 4.914 4.531 9.398 5.043 1.374.068 2.749.119 4.125.125l.324-1.786c.766-2.512 1.715-3.716 3.484-5.64l1.747-1.903 1.882-1.983 1.94-2.05c4.819-4.993 9.654-9.067 15.622-12.638l9.125-5.5 2.388-1.43c4.797-2.91 9.109-5.92 13.077-9.926C214 86 214 86 217 86z"
          fill="#19253b"/>
    <path d="M105.5 97.313c6.636.406 12.49 3.014 18.5 5.688l2.359 1.012c4.782 2.196 9.071 5.084 12.641 8.988v2h2c1.516 1.539 1.516 1.539 3.25 3.625l1.895 2.199 3.367 4.008c4.262 4.799 5.287 4.268 12.488 5.168v46c-9.146 2.613-9.146 2.613-13 2l-3-5c-1.902-2.064-3.808-4.043-5.812-6l-1.541-1.539c-4.186-4.138-8.424-8.156-13.521-11.148L123 153v-2l-1.812-.812C119 149 119 149 117.762 147.613c-2.444-2.238-5.11-3.283-8.137-4.613-4.058-1.791-7.849-3.677-11.625-6-7.814-4.313-17.277-4.43-26-5l-1-4 3.063-2.5c2.646-2.26 4.952-4.586 7.188-7.25 3.719-4.393 7.937-8.111 12.254-11.906 2.062-1.936 3.515-3.639 5.059-5.969 2.698-2.629 3.329-2.837 6.938-3.062z"
          fill="#459ad8"/>
    <path d="M127 50c2.266 2.266 2.767 3.875 3.813 6.875 2.173 5.592 4.768 7.75 9.938 10.688C143 69 143 69 144 72c2.015.733 2.015.733 4 1v2h4v2c6.936 2.543 13.694 3.949 21 5v2l41 1c-3.687 7.375-11.443 10.988-18.27 15.281-3.966 2.496-7.881 5.046-11.73 7.719l-2.172 1.508c-7.569 5.556-14.61 12.665-19.828 20.492-4.995-1.153-7.608-2.197-11-6l-6.293-5.121c-2.051-2.257-2.364-3.89-2.707-6.879l-1.812-.187C138 111 138 111 136.563 108.563c-1.893-3.105-3.214-3.39-6.562-4.562-2.21-1.678-2.925-2.523-3.361-5.297l.02-2.725.001-3.093.047-3.334.013-3.417.093-10.821.041-7.33L127 50z"
          fill="#f97c29"/>
    <path d="M106 97.5c3.65.228 6.788.635 10 2.5l1 2c2.256 1.011 4.551 1.854 6.871 2.707 2.907 1.765 3.163 3.03 4.129 6.293.261 2.937.233 5.854.195 8.801l-.009 2.534-.062 7.977-.027 5.424L128 149h-3v-2h-3l-2-3c-2.943-.696-2.943-.696-6.312-1-4.729-.518-7.744-1.329-11.687-4-9.459-5.503-19.232-6.297-30-7l-1-4 3.063-2.5c2.646-2.26 4.952-4.586 7.188-7.25 3.719-4.393 7.937-8.111 12.254-11.906 2.062-1.936 3.515-3.639 5.059-5.969 2.834-2.762 3.617-2.774 7.438-2.875z"
          fill="#4da4ec"/>
    <path d="M162 130c6 2 6 2 8 4h1l.11 19.147.041 6.49c.082 10.452.15 20.869-.971 31.273l-.211 2.12c-.243 1.92-.243 1.92-.969 4.97-3.759 2.506-6.942 2.452-11.312 2.625l-2.412.115c-7.093.313-14.176.363-21.276.26-.329-4.11.273-5.951 2.875-9.125l1.617-2.008L140 188l2-3 3-1 1-4c3-2 3-2 15-4l1-46z"
          fill="#112540"/>
    <path d="M173 82h47v101h-43v23h-53l-4-11c-2.207-3.306-2.207-3.306-4.812-5.875l-2.637-2.734c-3.021-2.831-6.089-5.133-9.551-7.391v-1c3.375.25 3.375.25 7 1 1.125 1.875 1.125 1.875 2 4 1.651 1.026 3.32 2.023 5 3 5.546 4.916 5.546 4.916 6 9l2-1 2 4c2.358-.893 2.358-.893 3.125-4.062L131 191l5-1-1.277 2.047-1.66 2.703-1.652 2.672c-1.621 2.706-1.621 2.706-2.41 6.578h45v-70l3 1v46h40V86l-41-1-3-1v-2z"
          fill="#af7153"/>
    <path d="M125 43l6 1v3h2l1 2 3-3c3.957 1.674 6.845 4.131 10 7v2l3 1v3l2.938.75L156 61c.625 2 .625 2 1 4 1.766 1.009 1.766 1.009 4 2 3.161 2.437 5.547 4.344 7.813 7.625 3.551 3.856 8.384 5.066 13.536 5.634 2.433.085 4.847.08 7.28.034l2.652-.013 8.282-.093 5.658-.041L220 80v2c-6.831 1.096-13.536 1.186-20.431 1.185l-6.305.039C178.789 83.286 166.026 81.602 153 75v-2l-2.215-.305c-5.285-1.319-10.002-5.192-13.148-9.609-.922-1.672-1.783-3.378-2.637-5.086l-1.625-1.625C131.462 54.462 130.812 52.56 130 50v-4h-5l-1 2 1-5z"
          fill="#112443"/>
    <path d="M125 46h5l.699 1.977c2.102 5.632 4.288 9.577 8.301 14.023l1 3c3.814 3.502 8.028 6.446 13 8v2c3.876 1.62 7.793 2.907 11.813 4.125l3.52 1.07L171 81v1c-7.126-.298-12.667-1.711-19-5v-2h-4l-1-2-3-1-1.375-1.875C140.694 67.6 138.748 66.57 136 65c-4.457-2.547-5.503-4.955-6.812-9.75L128 50c-3.133 1.609-3.133 1.609-3.52 3.988l-.293 2.324c-.999 5.237-2.883 6.675-7.187 9.688l-1.937 1.938c-1.826 1.826-3.686 3.547-5.625 5.25l-1.754 1.543C106 76 106 76 103 77l-1 3c-18 4-18 4-65 4v98l3-2c2.031-.241 2.031-.241 4.38-.227h2.669l2.87.031 2.947.009 9.323.062 6.318.027L84 180v3H36V83l44-1c12.476-2.495 22.684-6.465 31.695-15.746C113 65 113 65 115 65l.875-1.812C117 61 117 61 119 58h2l.621-2.117.816-2.758.809-2.742C124 48 124 48 125 46z"
          fill="#ce7846"/>
    <path d="M108 67l3 1-1.574 1.172-2.113 1.578-2.242 1.664c-2.166 1.61-2.166 1.61-4.383 3.711C83.137 88.369 52.992 83 36 83v101l4 2 1 2c-5.59-1.337-5.59-1.337-7.312-4.125-1.597-6.68-1.834-13.274-1.817-20.105l-.005-2.683.002-8.704-.003-6.072.005-12.684-.004-16.282v-12.518l-.002-6.007.007-8.366-.006-2.519c.021-5.706.021-5.706 1.136-7.935l13.275-.427 4.494-.146 6.547-.208 2.18-.067c6.249-.177 12.487-.154 18.737-.071 2.675.239 2.675.239 3.766-1.08a118.32 118.32 0 0 1 4.875-1c2.822-.527 5.395-1.09 8.125-2v-2h7v-2c2.813-2.187 2.813-2.187 6-4z"
          fill="#3a3b48"/>
    <path d="M37 84h37v2H39l.254 16.336.15 10.227.244 16.243.195 13.091.078 5.002.101 6.989.039 2.103c.053 4.78.053 4.78-1.061 7.008 4.342-.185 4.342-.185 8-2l6.441.121 3.955.146 4.166.17 4.178.158L76 162v2l2.875.438C82 165 82 165 84 166v2l1.938.313C93.001 169.898 98.25 171.331 103 177c-3.744 0-6.468-1.369-9.812-2.875-4.352-1.931-8.623-3.762-13.187-5.125l-1.81-.544c-7.614-2.002-15.434-1.91-23.253-2.081l-4.357-.117L40 166l1 16h-4V84z"
          fill="#db8a50"/>
    <path d="M174 134l3 1 .482 18.762.166 6.347.231 9.266.082 2.74c.243 11.35-.485 22.472-.961 33.885h-53l-4-11c-2.207-3.306-2.207-3.306-4.812-5.875l-2.637-2.734c-3.021-2.831-6.089-5.133-9.551-7.391v-1c3.375.25 3.375.25 7 1 1.125 1.875 1.125 1.875 2 4 1.651 1.026 3.32 2.023 5 3 5.546 4.916 5.546 4.916 6 9l2-1 2 4c2.358-.893 2.358-.893 3.125-4.062L131 191l5-1-1.277 2.047-1.66 2.703-1.652 2.672c-1.621 2.706-1.621 2.706-2.41 6.578h45v-70z"
          fill="#b27557"/>
    <path d="M40 166l12.476-.165 4.224-.062c12.834-.234 24.907.742 36.301 7.226l7.996 3.852C103 178 103 178 104 180c-2.724-1.073-5.401-2.184-8.062-3.406-4.492-1.93-9.144-3.09-13.875-4.281l-2.65-.682L73 170v-2H43l1 9 42-1 1 7c-2.603 2.781-4.791 3.237-8.446 3.388l-5.465.01-2.921.009a852.09 852.09 0 0 1-6.105-.016c-3.119-.016-6.236 0-9.355.019l-5.932-.012-2.832.018-2.63-.029-2.312-.007C39 186 39 186 36 183h48v-3H40v-14z"
          fill="#36272a"/>
    <path d="M128 161c7.141 1.067 12.156 8.088 16.715 13.168C146 176 146 176 146 179l-3 2c-1.136 1.652-1.136 1.652-2.062 3.5-1.199 2.273-2.088 3.651-3.937 5.5a89.9 89.9 0 0 1-6 1l-2 7h-2l-.055-15.326-.021-5.218-.022-7.484-.016-2.371c0-1.868.051-3.735.113-5.602l1-1z"
          fill="#f77f2a"/>
    <path d="M104 180c8.055 3.677 15.433 10.815 19.125 18.938C124 202 124 202 124 206h53v-23h43v3l-1.965-.035c-8.104-.075-16.187.17-24.285.473l-3.429.119-3.211.127-2.907.111c-2.176-.033-2.176-.033-3.202 1.205-.144 1.402-.227 2.81-.281 4.219l-.113 2.574-.105 2.707-.219 5.281-.092 2.377C180 207 180 207 179 208c-1.535.093-3.074.117-4.612.114h-2.973l-3.232-.016-3.291-.004-10.455-.031-7.068-.014L130 208v2l-6-1v-2h-2l-.699-1.977c-3.28-8.949-3.28-8.949-10.301-15.023l-1-3-4-3v-2h-2v-2z"
          fill="#452c2b"/>
    <path d="M216 87v92h-38v-43l2-1 1 42 14.813-.437 4.663-.131 3.669-.115 3.761-.111c3.13-.077 3.13-.077 6.094-1.205V93l-5 2h-5c9.714-8 9.714-8 12-8z"
          fill="#201c28"/>
    <path d="M134 110c1.938.813 1.938.813 4 2l1 3h2l3.25 3.625 1.895 2.199 3.367 4.008c4.262 4.799 5.287 4.268 12.488 5.168v46c-9.146 2.613-9.146 2.613-13 2l-3-5c-1.902-2.064-3.808-4.043-5.812-6l-1.541-1.539c-4.186-4.138-8.424-8.156-13.521-11.148L123 153v-2l-1.812-.812c-2.186-1.186-3.446-2.446-5.187-4.187-2.1-1.176-2.1-1.176-4-2 1.688-.75 1.688-.75 4-1 2.5 1.75 2.5 1.75 5 4 2.788 2.3 2.788 2.3 6.125 3.5C129 151 129 151 131 154l3 1 .875 1.813c1.034 2.382 1.034 2.382 3.5 4.063C141 163 141 163 142.688 166c2.885 3.743 5.5 4.62 9.875 6.141 2.265.799 4.304 1.766 6.438 2.859l.055-15.161.021-5.156.022-7.417.016-2.324c.03-5.063.03-5.063-1.113-9.942l-2.687-1.25c-3.857-2.038-5.281-4.122-7.738-7.617-2.898-3.926-6.28-8.04-10.738-10.164L135 115c-.75-2.625-.75-2.625-1-5z"
          fill="#4f8abb"/>
    <path d="M173 134h1v70h-45c1.18-5.902 3.524-9.219 7-14l1.332-1.844c2.534-3.282 4.668-5.013 8.668-6.156l-1 3-3 1c-1.611 1.878-1.611 1.878-3.062 4.188l-1.535 2.293c-1.539 2.764-2.437 5.513-3.402 8.52l13.562-.8 4.615-.271 6.627-.395 2.09-.117c3.676-.196 3.676-.196 7.105-1.418.476-2.872.842-5.671 1.125-8.562l.262-2.443L170 181h1l1 15 1-62z"
          fill="#553b36"/>
    <path d="M80 117l2 1-3.875 4.438-2.18 2.496C74 127 74 127 72 128v3l3.219.367c10.512 1.232 19.792 2.362 29.031 8.008 4.131 2.441 8.445 4.51 12.75 6.625v2l1.75.75c2.561 1.423 4.183 3.183 6.25 5.25l2.625 1.563C130 157 130 157 132 160c-5.243-1.18-8.079-3.665-11.918-7.187-3.708-3.228-7.789-5.899-12.363-7.721a112.76 112.76 0 0 1-5.353-2.31c-8.733-3.959-17.071-5.142-26.534-6.164l-3.371-.43-3.038-.332C67 135 67 135 65.659 132.426L65 130c2.981-3.23 4.777-4.981 9-6a89.26 89.26 0 0 0 2-4c2.125-1.75 2.125-1.75 4-3z"
          fill="#e4945b"/>
    <path d="M125 43l6 1v3h2c2.125 4.625 2.125 4.625 1 8l3 1 5 5 2 2v3l1.828.516c8.207 2.489 8.207 2.489 11.172 6.484v2l2.75.375C163 76 163 76 164.863 76.969c10.418 5.024 24.708 3.262 35.95 3.156l5.604-.027L220 80v2c-6.831 1.096-13.536 1.186-20.431 1.185l-6.305.039C178.789 83.286 166.026 81.602 153 75v-2l-2.215-.305c-5.285-1.319-10.002-5.192-13.148-9.609-.922-1.672-1.783-3.378-2.637-5.086l-1.625-1.625C131.462 54.462 130.812 52.56 130 50v-4h-5l-1 2 1-5z"
          fill="#362322"/>
    <path d="M36 83h38v1H37v98l3-2c2.031-.241 2.031-.241 4.38-.227h2.669l2.87.031 2.947.009 9.323.062 6.318.027L84 180v3H36V83z"
          fill="#9a6e58"/>
    <path d="M106 97.5c3.664.219 6.72.75 10 2.5-2.851 1.426-5.149.795-8.312.563-4.705-.213-4.705-.213-8.516 2.109-1.266 2.121-1.266 2.121-2.262 4.367-1.148 2.473-2.709 3.42-4.91 4.961l-1.312 2.25c-2.346 3.824-5.462 6.664-8.687 9.75l-2 2-4 3 2.203.043c8.179.388 14.458 2.426 21.797 5.957l2.906 1.336c6.801 3.224 6.801 3.224 9.094 6.664-5.036-1.547-9.565-3.085-14-6-7.815-4.311-17.277-4.43-26-5l-1-4 3.063-2.5c2.646-2.26 4.952-4.586 7.188-7.25 3.719-4.393 7.937-8.111 12.254-11.906 2.062-1.936 3.515-3.639 5.059-5.969 2.834-2.762 3.617-2.774 7.438-2.875z"
          fill="#719fc6"/>
    <path d="M115.813 96.875c3.073 1.17 5.434 2.29 8.188 4.125l2.813.938c5.985 1.995 9.107 3.488 12.188 9.063l3 1 1.313 2.75c1.998 3.848 4.288 5.599 7.688 8.25l2.5 2.75c2.888 2.599 4.681 2.984 8.5 3.25v1c-6.796.76-6.796.76-9.879-1.187-1.816-1.65-3.475-3.369-5.121-5.188l-1.77-1.828C141 117.339 141 117.339 141 115h-2l-5-5c-3.624-3.217-6.952-4.978-11.5-6.625l-3.344-1.227L116 101l-2.605-1.105c-4.212-1.574-8.006-1.997-12.395-.895-2.396 1.973-4.147 4.091-6.051 6.539-3.62 4.57-8.113 8.237-12.949 11.461.967-2.158 1.781-3.79 3.5-5.437 1.691-1.552 1.691-1.552 2.438-4.125 1.279-2.934 2.245-3.165 5.063-4.437l1-3c7.011-6.206 13.376-6.067 21.813-3.125z"
          fill="#c29980"/>
    <path d="M177 183h43v3l-1.965-.035c-8.104-.075-16.187.17-24.285.473l-3.429.119-3.211.127-2.907.111c-2.176-.033-2.176-.033-3.202 1.205-.156 1.413-.251 2.834-.316 4.254l-.127 2.588-.119 2.721-.131 2.732L180 207l-3 1v-25z"
          fill="#392425"/>
    <path d="M202 152c2.375 1.5 2.375 1.5 4 4 .689 4.28.457 7.315-2 11-2.059.398-2.059.398-4.437.375l-2.371.023c-2.711-.493-3.589-1.177-5.191-3.398-.759-6.832-.759-6.832 1.625-10.5 3.096-1.956 4.774-2.1 8.375-1.5z"
          fill="#b97849"/>
    <path d="M128.688-.25l2.257-.004c28.426.011 28.426.011 33.782 4.797L166 6l3 1-1 2-6.687-1.375-3.762-.773C154.52 6.125 151.872 5.173 149 4c-2.709-.168-2.709-.168-5 0V2l-3 1a182.61 182.61 0 0 1-7.512.098l-2.207-.004-6.969-.031-4.729-.014L108 3c1-2 1-2 2.624-2.612 5.921-.966 12.071-.631 18.063-.638z"
          fill="#1c3658"/>
    <path d="M41 167l14.459-.11 4.908-.041c12.056-.125 21.794.313 32.633 6.151l7.996 3.852C103 178 103 178 104 180c-2.724-1.073-5.401-2.184-8.062-3.406-4.492-1.93-9.144-3.09-13.875-4.281l-2.65-.682L73 170v-2H43l1 9h38v1H42l-1-11z"
          fill="#1a1927"/>
    <path d="M123 53h1c.313 2.688.313 2.688 0 6-2.187 2.563-2.187 2.563-5 5l-2.312 2.375C107.265 75.578 107.265 75.578 103 77l-1 3c-2.844.902-5.527 1.594-8.437 2.188l-2.47.528C85.296 83.894 79.923 84.382 74 84v-1l3.184-.516c13.447-2.275 24.675-6.1 34.512-16.23C113 65 113 65 115 65l.875-1.812C117 61 117 61 119 58h2l2-5z"
          fill="#c58559"/>
    <path d="M108 67l3 1-1.574 1.172-2.113 1.578-2.242 1.664c-2.166 1.61-2.166 1.61-4.383 3.711-9.165 6.394-19.968 7.034-30.777 6.973l-2.862-.004-8.985-.031-6.119-.014L37 83v-1l3.178-.06 11.764-.257 5.074-.104 7.328-.164 2.261-.035C74.89 81.309 74.89 81.309 82 78a118.32 118.32 0 0 1 4.875-1c2.822-.527 5.395-1.09 8.125-2v-2h7v-2c2.813-2.187 2.813-2.187 6-4z"
          fill="#483e43"/>
    <path d="M103 178c3.375.25 3.375.25 7 1 1.125 1.875 1.125 1.875 2 4l5 3c5.546 4.916 5.546 4.916 6 9l2-1 2 4c2.358-.893 2.358-.893 3.125-4.062L131 191l5-1-1.242 2.012-1.633 2.676-1.617 2.637c-1.414 2.51-2.507 4.979-3.508 7.676h-3v-3h-2l-1.437-3.375c-4.162-8.309-10.899-14.57-18.562-19.625v-1z"
          fill="#cf8250"/>
    <path d="M200.063 148.25L202 149l3 1c3.204 2.93 4.322 5.249 4.563 9.5-.15 3.741-.498 4.421-3 7.5L204 169l-1 1c-6.957.696-6.957.696-11-2-2.102-3.153-2.676-5.213-2.426-9.008.903-4.226 3.402-7 6.426-9.93 2-1.062 2-1.062 4.063-.812zm-6.437 5.25c-2.432 3.741-2.117 6.074-1.625 10.5 1.602 2.222 2.48 2.905 5.191 3.398l2.371-.023 2.379.023L204 167c2.457-3.685 2.689-6.72 2-11-1.46-2.627-1.46-2.627-4-4-3.601-.6-5.279-.456-8.375 1.5z"
          fill="#2f2525"/>
    <path d="M176 85h38c-5.037 10.073-19.125 16.342-29 21l1-5h4v-3l9-2v-3l2.813-.812c3.052-1.137 4.037-1.935 6.188-4.187h3v-2h-35v-1z"
          fill="#dc7f46"/>
    <path d="M216 87v92h-5l4-1V91l-6 4c-2.875.25-2.875.25-5 0 9.714-8 9.714-8 12-8z" fill="#361f1f"/>
    <path d="M37 84h1l.031 2.974.308 27.932.158 14.355.156 13.889.056 5.263C37.734 165.677 37.734 165.677 41 182h-4V84z"
          fill="#e49b62"/>
    <path d="M112 143c4.778.299 7.481 2.697 11.035 5.625 1.873 1.492 1.873 1.492 4.086 1.875C129 151 129 151 131 154l3 1 .875 1.813c1.034 2.382 1.034 2.382 3.5 4.063 2.967 2.402 4.563 4.933 6.625 8.125 1.297 1.369 2.618 2.717 4 4l-1 2-1.19-1.206-5.435-5.482-1.871-1.896c-4.47-4.494-8.881-8.877-14.379-12.104L123 153v-2l-1.812-.812c-2.186-1.186-3.446-2.446-5.187-4.187-2.1-1.176-2.1-1.176-4-2v-1z"
          fill="#858d92"/>
    <path d="M197 22c5.826 1.261 9.229 3.353 13.625 7.313l1.656 1.436c3.377 2.953 6.576 6.049 9.719 9.252l2 2a89.9 89.9 0 0 1 1 6c-3.783-2.522-3.783-2.522-4.937-5.062-.94-2.206-.94-2.206-3.625-2.937L214 39c-.372-1.323-.706-2.657-1-4-1.766-1.009-1.766-1.009-4-2l-3.062-2.562c-2.74-2.573-2.74-2.573-5.937-3.437v-2h-3v-3z"
          fill="#1c395c"/>
    <path d="M253 119l2 1c.46 16.888.524 33.456-7 49h-1c.446-5.066 1.181-9.758 2.527-14.676.849-4.173.988-8.419 1.227-12.664C251 139 251 139 252 138c.156-1.413.251-2.834.316-4.254l.127-2.588.119-2.721.131-2.732L253 119z"
          fill="#061434"/>
    <path d="M146 182l-1 3-3 1c-1.577 1.845-1.577 1.845-3 4.125l-1.5 2.258c-1.76 3.071-3.106 6.364-4.5 9.617h37v1h-40c2.257-9.029 2.257-9.029 6.438-13.875l2.371-2.805c4.08-4.32 4.08-4.32 7.191-4.32z"
          fill="#3b2523"/>
    <path d="M127 102l1.688.875c2.307 1.191 2.307 1.191 4.875 1.938 3.08 1.501 3.784 3.257 5.438 6.188l3 1 1.313 2.75c1.998 3.848 4.288 5.599 7.688 8.25l2.5 2.75c2.888 2.599 4.681 2.984 8.5 3.25v1c-6.796.76-6.796.76-9.879-1.187-1.816-1.65-3.475-3.369-5.121-5.188l-1.77-1.828C141 117.339 141 117.339 141 115h-2l-5-5-2.687-2.062c-2.267-1.9-3.245-3.22-4.312-5.937z"
          fill="#cb885e"/>
    <path d="M247 88l.813 1.938c1.074 2.394 1.074 2.394 4.188 3.063l2 10.188.578 2.908.547 2.822.508 2.587c.373 2.536.431 4.936.367 7.495l-1-2-2-1 1-1-1.443-1.233c-1.844-2.093-2.092-3.303-2.471-6.041l-.367-2.5-.344-2.602-.727-5.086-.333-2.394L247 88z"
          fill="#1d345a"/>
    <path d="M202 95l2 1-1 3-4 2-1.34 1.91c-1.929 2.428-3.551 3.29-6.348 4.59l-2.672 1.262L186 110l-4.437 2.313C178 114 178 114 175 114c5.986-5.121 11.919-9.797 18.762-13.715 2.844-1.633 5.533-3.434 8.238-5.285z"
          fill="#432c26"/>
    <path d="M183.188 106.375L185 107l-1.801 1.328C175.198 114.45 167.618 121.573 162 130c-6.646-1.477-6.646-1.477-8.437-4.125L153 124l4 2v2h5l.313-1.687c1.578-5.308 4.419-7.981 8.688-11.312l2.125-2.75L175 110h3v-2c3-2 3-2 5.188-1.625z"
          fill="#dc7f44"/>
    <path d="M194 156c7.75-.125 7.75-.125 10 1 .201 3.625-.142 5.865-2 9h-7c-1.158-3.473-1.069-6.361-1-10z"
          fill="#f08330"/>
    <path d="M176 80h44v2c-6.98 1.127-13.867 1.186-20.925 1.185l-6.602.039-4.23.006-3.848.012c-3.253-.233-5.477-.839-8.394-2.243v-1z"
          fill="#3c3947"/>
    <path d="M80 117l2 1-3.875 4.438-2.18 2.496C74 127 74 127 72 128v3l3.219.367C93.925 133.559 93.925 133.559 102 138c-2 1-2 1-4.562.188L94 137c-8.577-2.109-17.3-3.502-26-5 .774-3.861 1.847-4.681 5-7l1.5-2.5c1.558-2.597 2.992-3.857 5.5-5.5z"
          fill="#af9c8d"/>
    <path d="M132 160c4.417 2.02 7.381 4.941 10.813 8.313l1.85 1.725c1.623 1.593 3.071 3.073 4.338 4.963-.113 2.918-.113 2.918-1 5h-2v2l-4 2c.313-1.937.313-1.937 1-4l3-1c-1.904-3.407-4.057-6.346-6.594-9.309-2.601-3.128-4.99-6.42-7.406-9.691z"
          fill="#cd8355"/>
    <path d="M105 141c4.444 1.133 8.264 2.283 12 5v2l1.75.75c2.561 1.423 4.183 3.183 6.25 5.25l2.625 1.563C130 157 130 157 132 160c-5.185-1.167-7.932-3.561-11.707-7.059-3.399-2.878-7.154-5.087-10.973-7.363C107 144 107 144 105 141z"
          fill="#df9358"/>
    <path d="M71 167c9.477.752 17.023 3.396 25.5 7.563l1.891.924c4.486 2.267 4.486 2.267 5.609 4.513-2.724-1.073-5.401-2.184-8.062-3.406-4.492-1.93-9.144-3.09-13.875-4.281l-2.65-.682L73 170v-2l-2-1z"
          fill="#2e2327"/>
    <path d="M174 115l1 2 2 1-1.937.75L173 120l-.449 1.844c-.657 2.574-1.703 3.901-3.426 5.906l-1.555 1.859C166 131 166 131 163 131c.417-4.857 2.8-7.451 6.063-10.812l1.432-1.521L174 115z"
          fill="#35282f"/>
    <path d="M125 46h5l.699 1.977c2.085 5.586 4.196 9.691 8.301 14.023l-1 2c-4.875-3.625-4.875-3.625-6-7l-3-2c-.687-2.625-.687-2.625-1-5l-5 3 2-7z"
          fill="#b67e58"/>
    <path d="M32 210c3.097 1.345 4.854 2.732 6.938 5.375 2.434 2.966 4.957 5.341 8.063 7.625l-1 3c-4.492-1.373-6.267-3.242-9-7l-2.75-3.125C32 213 32 213 32 210z"
          fill="#1d385a"/>
    <path d="M105 74l2 1-1.937.813c-2.394 1.074-2.394 1.074-3.062 4.188-2.844.902-5.527 1.594-8.437 2.188l-2.47.528C85.296 83.894 79.923 84.382 74 84v-1l3.359-.586 4.391-.789 2.211-.383C87.626 80.576 90.753 79.832 94 78l7-2 2.313-1.187L105 74z"
          fill="#d78955"/>
    <path d="M134 110c1.938.813 1.938.813 4 2l1 3h2l3.25 3.625 1.891 2.199 3.406 4.008c2.733 3.02 4.302 4.134 8.328 5.043L161 130v2c-5.106-.096-7.966-.494-11.703-4.09l-3.547-3.848-3.578-3.84-1.56-1.726c-1.574-1.608-1.574-1.608-3.764-2.534L135 115c-.75-2.625-.75-2.625-1-5z"
          fill="#7a93a6"/>
    <path d="M239 66c3.727 3.213 5.401 6.363 7 11 .188 3.438.188 3.438 0 6h-2l-.77-1.898-1.043-2.477-1.02-2.461c-1.112-2.466-1.112-2.466-4.168-4.164l2-6z"
          fill="#203154"/>
    <path d="M255 134h1c.748 11.519-1.39 25.356-6 36l-2 1 .875-5.125.492-2.883C250 160 250 160 250.969 157.281c1.411-4.488 2.006-9.005 2.656-13.656l.406-2.809L255 134z"
          fill="#172b4d"/>
    <path d="M64 16l3 1c-4.75 3-4.75 3-7 3l-1 3-5.223 2.961c-2.986 1.745-5.06 4.236-7.34 6.789C45 34 45 34 42 34v2l-3 1c1.389-3.356 2.917-5.073 6-7h2l.734-1.812c1.511-2.612 2.97-3.594 5.516-5.187l2.43-1.535L58 20l3.375-2.437L64 16z"
          fill="#325276"/>
    <path d="M179 185h28v1l-2.279.076-10.158.362-3.588.119-3.408.127-3.158.111c-2.358-.06-2.358-.06-3.408 1.205l-.316 4.254-.127 2.588-.119 2.721-.131 2.732L180 207l-3 1v-2h2v-21z"
          fill="#1b1c2c"/>
    <path d="M9 80l2 1-3 10H6l.563 2.125c.489 3.214.1 5.711-.562 8.875H4v2H2c1.483-8.53 3.037-16.211 7-24z"
          fill="#2a496c"/>
    <path d="M153 74c5.556.479 8.992 1.496 14 4 3.971 1.128 7.976 2.082 12 3v1c-8.298.651-17.129-1.137-23.895-6.141L153 74z"
          fill="#563429"/>
    <path d="M191 240l2 1c-6.826 4.642-16.538 11-25 11v-2l5.375-2 3.023-1.125C179 246 179 246 181 246l.625-1.937C183 242 183 242 186 241.313l3-.312 2-1z"
          fill="#1a324c"/>
    <path d="M122 48h2c-.507 3.719-1.116 6.735-3 10h-2l-.687 1.688c-1.671 2.945-3.865 4.994-6.312 7.313l-1-3h3l.375-1.687c.685-2.534 1.616-4.892 2.625-7.312h3l.438-2.937C121 49 121 49 122 48z"
          fill="#493f43"/>
    <path d="M133 198l1 3 14.307-.317 4.865-.104 7-.164 2.191-.035c3.684-.108 6.5-.356 9.637-2.379v5l-39-1v-4z"
          fill="#251b23"/>
    <path d="M80 168c7.235-.536 13.915.774 19.746 5.379 1.379 1.371 1.379 1.371 3.254 3.621-3.744 0-6.468-1.369-9.812-2.875-4.351-1.931-8.647-3.692-13.187-5.125v-1z"
          fill="#9d694e"/>
    <path d="M104 180c7.316 3.34 11.854 8.995 17 15l-1 2c-4.605-3.041-7.307-5.127-10-10l-4-3v-2h-2v-2z" fill="#392c27"/>
    <path d="M108 67l3 1-1.574 1.172-2.113 1.578-2.242 1.664c-2.166 1.61-2.166 1.61-4.383 3.711C96.553 79.009 91.868 80.722 87 82l-2-1 3.813-2 2.145-1.125C93 77 93 77 96 77v-2h3v-2h3v-2c2.813-2.187 2.813-2.187 6-4z"
          fill="#61493f"/>
    <path d="M5 152h1l.805 3.473 1.07 4.59.527 2.279C9.477 166.937 10.665 171.473 12 176h-2l-2.133-5.715a135.25 135.25 0 0 0-1.734-4.352C4.299 161.471 3.599 157.913 4 153l1-1z"
          fill="#1c3358"/>
    <path d="M170 8c8.166.2 11.286 2.286 17 8-6.23-.505-11.455-3.326-17-6V8z" fill="#213d5f"/>
    <path d="M235 195h2c-1.384 3.84-3.163 6.971-5.5 10.313l-1.844 2.676L228 210h-2v-4h2l.188-2.187c1.061-3.671 3.009-5.29 5.813-7.812l1-1z"
          fill="#152945"/>
    <path d="M44 164l12.268-.11 4.16-.041c8.062-.099 15.729.077 23.572 2.151v2l-2.125-.437c-5.305-1.038-10.393-1.711-15.805-1.879l-3.906-.127-4.039-.119-4.109-.131L44 165v-1z"
          fill="#d78e5c"/>
    <path d="M125 43l6 1v3h2c1.604 3.508 2.22 6.144 2 10-3.373-2.249-3.836-3.239-5-7v-4h-5l-1 2 1-5z" fill="#443b40"/>
    <path d="M176 85h38l-2 4-4-1h3v-2h-35v-1z" fill="#e88243"/>
    <path d="M88 133c7.277-.674 11.744 1.41 18 5l3.063 1.688C111 141 111 141 112 143c-5.036-1.547-9.565-3.085-14-6-3.269-1.898-6.261-2.49-10-3v-1z"
          fill="#7f9eb2"/>
    <path d="M134 155c3.875 1.75 3.875 1.75 5 4 2.025.652 2.025.652 4 1l1 6 3 1c.688 2.063.688 2.063 1 4-3.377-1.405-4.945-2.939-7-5.937-1.618-2.353-2.852-3.957-5.187-5.629L134 158v-3z"
          fill="#5595c0"/>
    <path d="M141 116c5.033 2.129 8.874 5.761 12.5 9.75 2.888 2.599 4.681 2.984 8.5 3.25v1c-6.8.768-6.8.768-9.879-1.203-1.814-1.668-3.474-3.402-5.121-5.235l-1.77-1.854C141 117.226 141 117.226 141 116z"
          fill="#b48a74"/>
    <path d="M138 110l6 1 .25 1.875c.988 2.8 2.154 2.866 4.75 4.125l2 4 2 1v2c-4.442-1.396-7.015-3.435-10-7-.812-2.812-.812-2.812-1-5l-4-1v-1z"
          fill="#e18145"/>
    <path d="M153 181l-3 1-1 2-1 2-3 1-1 3-5 1 3-6 3-1 1-2c2.982-1.889 3.506-2.165 7-1z" fill="#1d1c2f"/>
    <path d="M80 117l2 1-3.875 4.438-2.18 2.496C74 127 74 127 72 128v4h-4c.374-2.712.658-3.738 2.875-5.437L73 125l1.5-2.5c1.558-2.597 2.992-3.857 5.5-5.5z"
          fill="#b99584"/>
    <path d="M146 182l-1 3-3 1c-1.622 2.211-2.989 4.523-4.402 6.871-1.706 2.273-2.986 3.097-5.598 4.129 1.527-5.43 7.72-15 14-15z"
          fill="#553223"/>
    <path d="M37 164l2 1 .563 7.438c.035 4.932.035 4.932 1.438 9.563h-4v-18z" fill="#d49767"/>
    <path d="M133 190l3 1-1.242 1.828-1.633 2.422-1.617 2.391A56.23 56.23 0 0 0 128 204c-1-1-1-1-1.062-3.562L127 198l2-1 1-3 1-3 2-1z"
          fill="#db8040"/>
    <path d="M1 124h2c1.333 10.558 1.333 10.558 0 15l-2-1c-.449-2.906-.449-2.906-.687-6.5l-.262-3.594L0 125l1-1z"
          fill="#183554"/>
    <path d="M124 95v5h2v2c-4.035-1.59-8.018-3.282-12-5v-1c3.406-.778 6.508-1.1 10-1z" fill="#f19348"/>
    <path d="M185 86h26v2l-6 3v-3l-20-1v-1z" fill="#ef8235"/>
    <path d="M151 73h2v2c3.876 1.62 7.793 2.907 11.813 4.125l3.52 1.07L171 81v1c-6.683-.279-13.414-.992-19-5-.746-2.137-.746-2.137-1-4z"
          fill="#c77444"/>
    <path d="M143 174l3 2v3l-3 2c-1.1 1.654-1.1 1.654-2 3.5-1.489 2.929-2.083 3.556-5 5.5l1-5 3-1c1.027-2.329 1.027-2.329 1.688-5.062l.762-2.785L143 174z"
          fill="#e47f3d"/>
    <path d="M212 94l-3 3h-2l-1 3-7 1 1-2h3l.125-1.875C204 95 204 95 206.938 93.688 210 93 210 93 212 94z"
          fill="#1d1e2b"/>
    <path d="M191 156h1v8l3 1v2h6v1l-4.375.188-2.461.105L192 168c-2.695-4.042-2.232-6.205-2-11l1-1z" fill="#3c2b2d"/>
    <path d="M204 155l2 1c.25 7.625.25 7.625-2 11-2.164.293-2.164.293-4.625.188l-2.477-.082L195 167v-1h7l2-11z"
          fill="#a77046"/>
    <path d="M187 108h2v2c-3 2-3 2-7 2l-.437 1.938C181 116 181 116 180 117h-5v-2c3.511-2.613 6.91-4.481 11-6l1-1z"
          fill="#221e2c"/>
    <path d="M14 74h1c.332 4.762-.35 7.074-3 11l-3 6c-1.066-3.198-.953-4.303-.25-7.5l.484-2.344C10.092 78.74 11.122 77.7 13 76l1-2z"
          fill="#1e395e"/>
    <path d="M175 248c-2.647 1.461-3.894 2-7 2l-1 3h-8v-2l5.75-2.062 3.234-1.16c2.938-.757 4.239-.849 7.016.223z"
          fill="#061633"/>
    <path d="M50 29l1 2-1.68 1.426-2.195 1.887-2.18 1.863C42.808 38.041 42.808 38.041 41 41h-2l1-5h2v-2h3l1-3c2.063-1.187 2.063-1.187 4-2z"
          fill="#1c385c"/>
    <path d="M38 41c-1.779 4.044-4.395 7.461-7 11l-2-1 1.813-4.437 1.02-2.496C33.389 41.312 34.902 41 38 41z"
          fill="#1e375b"/>
    <path d="M2 153l2 1c.563 1.891.563 1.891 1 4.25.542 2.737 1.096 4.977 2.188 7.563.938 2.525.734 3.699-.187 6.188-3.07-6.14-4.055-12.232-5-19z"
          fill="#344d74"/>
    <path d="M116 101c15.251 4.876 15.251 4.876 18 9h-5l-1-3c-2.524-1.176-2.524-1.176-5.5-2.062-1.851-.594-3.69-1.23-5.5-1.937l-1-2z"
          fill="#7499b5"/>
    <path d="M194 162h9l-1 4h-7l-1-4z" fill="#dd894d"/>
    <path d="M144 66c9.595 2.706 9.595 2.706 13 7-1.75.75-1.75.75-4 1-1.937-1.75-1.937-1.75-4-4l-5-3v-1z"
          fill="#251b24"/>
    <path d="M96 3v2l-5.25 2.063-2.953 1.16C84.96 9.011 83.706 9.024 81 8c4.661-3.107 9.345-5 15-5z" fill="#2f4d72"/>
    <path d="M124 194c2.313 2.313 2.496 3.479 3.125 6.625l.508 2.477L128 205h-3l-.586-6.152L124 197l-2-1 2-2z"
          fill="#e9935c"/>
    <path d="M149 174l9.375 1.563L161 176v1l-12 1v-4z" fill="#59819d"/>
    <path d="M112 143c5.442.34 8.937 3.703 13 7-1.844.645-1.844.645-4 1-2.5-2.312-2.5-2.312-5-5-2.166-1.295-2.166-1.295-4-2v-1z"
          fill="#909ba5"/>
    <path d="M105 141c4.461 1.137 8.204 2.355 12 5v1c-2.951.351-5.15.529-7.734-1.078-1.487-1.232-2.883-2.573-4.266-3.922v-1z"
          fill="#cd9b75"/>
    <path d="M174 115l1 2 2 1-6 5-3-1 6-7z" fill="#452c25"/>
    <path d="M48 27h3c-1 3-1 3-3 4.063L46 32l-1 2h-3v2l-3 1c1.389-3.356 2.917-5.073 6-7h2l1-3z" fill="#2c4b6d"/>
    <path d="M103 178l7 1 2 6-4.5-2.937-2.531-1.652L103 179v-1z" fill="#c27f51"/>
    <path d="M112 184c2.719.375 3.842.842 5.813 2.813C119 189 119 189 118.574 191.137L118 193l-3-3.375-1.687-1.898C112 186 112 186 112 184z"
          fill="#d4875a"/>
    <path d="M116 143l5 1 1 3h3v2h2v2c-9.1-4.2-9.1-4.2-11-8z" fill="#619fd3"/>
    <path d="M115 99l5.875 1.313 3.305.738C127 102 127 102 129 105c-5.07-.654-9.42-2.855-14-5v-1z" fill="#a89b8f"/>
    <path d="M105 250c3.785 1.514 4.007 2.014 6 6l-11-1 1-2h3l1-3z" fill="#1f3455"/>
    <path d="M17 190c2.375.5 2.375.5 5 2 1.082 2.665 1.493 5.141 2 8-1.812-.5-1.812-.5-4-2-1.262-2.586-2.156-5.252-3-8z"
          fill="#1e3658"/>
    <path d="M131 56c2 1 2 1 3.438 3.438 1.459 2.798 1.459 2.798 4.563 4.563l-1 3c-6.862-5.094-6.862-5.094-7.437-8.875L131 56z"
          fill="#e6803c"/>
    <path d="M202 234v2l-7 4-2-1c.688-1.937.688-1.937 2-4 2.43-.729 4.472-1 7-1z" fill="#1c2e49"/>
    <path d="M237 195c-1.312 3.937-2.919 6.227-6 9-.812-1.687-.812-1.687-1-4 4.205-5 4.205-5 7-5z" fill="#23344d"/>
    <path d="M242 176h2v6l-2 1-2 3c-.687-1.625-.687-1.625-1-4l3-6z" fill="#071734"/>
    <path d="M93 171c4.833.414 6.827 2.464 10 6-4.032 0-5.809-1.641-9-4l-1-2z" fill="#c48053"/>
    <path d="M127 157l3.813 2.75 2.145 1.547c2.073 1.728 3.517 3.488 5.043 5.703-2.235-1.002-3.826-1.811-5.5-3.625-1.652-1.825-1.652-1.825-5.5-1.375v-5z"
          fill="#ea813c"/>
    <path d="M123 151c5.292 1.401 7.775 4.855 11 9-2.747-1.313-5.257-2.753-7.75-4.5l-1.859-1.281L123 153v-2z"
          fill="#ab907f"/>
    <path d="M16 66c1 3 1 3 .063 5.188L15 73h-2v5l-3 1 3-9h2l1-4z" fill="#2b4c72"/>
    <path d="M120 56l1 2h-2l-.687 1.688c-1.671 2.945-3.865 4.994-6.312 7.313l-1-3h3l.313-1.937L115 60l3-1v-2l2-1z"
          fill="#55433e"/>
    <path d="M112 188c4.419 1.35 6.343 3.261 9 7l-1 2-3.437-2.25-1.934-1.266c-1.928-1.757-2.244-2.945-2.629-5.484z"
          fill="#4a302c"/>
    <path d="M125 151h4l2 3 3 1c1.188 2.563 1.188 2.563 2 5-2.965-1.358-5.291-2.924-7.75-5.062l-1.859-1.598L125 152v-1z"
          fill="#7091a9"/>
    <path d="M252 106h1c1.583 4.326 2.451 8.429 3 13l-1-2-2-1 1-1-1.562-1.125C251 112 251 112 251.313 108.813L252 106z"
          fill="#192d53"/>
    <path d="M108.188 71.375L110 72l-5 3-2.687 1.75L100 78l-2-1c7.505-6.085 7.505-6.085 10.188-5.625z" fill="#bd825a"/>
    <path d="M133 196c1.245 2.491.777 3.411 0 6h6v1h-9l1-6 2-1z" fill="#3e2019"/>
    <path d="M98 97l2 1-7 8-4-1 1.938-.812c2.394-1.074 2.394-1.074 3.063-4.187l4-3z" fill="#de9361"/>
    <path d="M132 55c3.739 2.657 5.65 4.581 7 9-3.536-1.675-4.791-2.493-6.312-6.187L132 55z" fill="#a36540"/>
    <path d="M31 45c0 3.845-1.017 5.853-3.5 8.75C26 55 26 55 24 55c1.668-3.941 4.227-6.789 7-10z" fill="#2f4a72"/>
    <path d="M213 143h1v10h-3v-5h2v-5z" fill="#162134"/>
    <path d="M211 89l2 3c-2.36 2.097-3.546 2.969-6.75 3.188L204 95l2.375-1.875c2.593-2.024 2.593-2.024 4.625-4.125z"
          fill="#482d25"/>
    <path d="M241 74l1 2h2c2 3 2 3 2 7h-2c-3-5.625-3-5.625-3-9z" fill="#183153"/>
    <path d="M142 66l1.625.875c2.728 1.292 5.501 2.211 8.375 3.125v3c-4.957-1.239-7.117-2.786-10-7z" fill="#5f3426"/>
    <path d="M123 53h1c.25 2.75.25 2.75 0 6-2 2.375-2 2.375-4 4l.938-4.437.527-2.496C122 54 122 54 123 53z"
          fill="#df8f52"/>
    <path d="M178 11c4 0 4 0 5.625 1.375L185 14l2 2c-3.123-.486-5.996-.999-9-2v-3z" fill="#183459"/>
    <path d="M217 219v3l-5 4c-.625-1.875-.625-1.875-1-4l2-2v2l4-3z" fill="#162d45"/>
    <path d="M88 168l4.875.375 2.742.211C98 169 98 169 100 171l-1 3-2-2-4.625-1.625-2.477-.789L88 169v-1z"
          fill="#f19352"/>
    <path d="M181 106l4 1-7 5-1-2c1.75-2.062 1.75-2.062 4-4z" fill="#ce7d4e"/>
    <path d="M127 102c3.817 1.555 6.192 4.036 9 7-3 0-3 0-5.625-2.375C128 104 128 104 127 102z" fill="#bd8c6b"/>
    <path d="M168 79l3.813.375 2.145.211C176 80 176 80 179 82c-7.508.369-7.508.369-10-1.5l-1-1.5z" fill="#3c2928"/>
    <path d="M59 23v2c-5.412 4-5.412 4-8 4 1.435-4.304 3.42-6 8-6z" fill="#1a375a"/>
    <path d="M81 247l7 1v3h-4v-2l-3-1v-1z" fill="#193658"/>
    <path d="M106 138h5v2l5 1v2c-4.401-.503-6.712-2.088-10-5z" fill="#5fa0d6"/>
    <path d="M168 118l3 1-5 6c-1-3-1-3 0-6l2-1z" fill="#ce7847"/>
    <path d="M241 69c2 1 2 1 2.852 3.066l.773 2.496.789 2.504L246 79l-2-1v-2h-2l-1-7z" fill="#264569"/>
    <path d="M128 48l1 2h2l1 6-3-1-1-7z" fill="#cb7c47"/>
    <path d="M91 250l7 1v2c-3 1-3 1-5.187.063L91 252v-2z" fill="#1c3459"/>
    <path d="M210 223l1 3c-4.75 4-4.75 4-7 4v-2h2v-2l4-3z" fill="#061833"/>
    <path d="M198 148c3.042.285 4.39 1.26 7 3h-10l3-3z" fill="#1d1e2c"/>
    <path d="M202 95l2 1-1 3c-1.848.73-1.848.73-4.062 1.188l-2.223.48L195 101c2.257-2.335 4.281-4.187 7-6z"
          fill="#633e2e"/>
    <path d="M116 97c6.625.75 6.625.75 10 3v2l-10-4v-1z" fill="#e4995a"/>
    <path d="M207 89l4 1c-4.75 4-4.75 4-7 4 1.875-3.875 1.875-3.875 3-5z" fill="#c67e4b"/>
    <path d="M206 85h8l-2 4-4-1h3v-2h-5v-1z" fill="#dc8747"/>
</svg>